# xmcd
#
# Track frame offsets:
#   150
#   15990
#   30152
#   47132
#   59202
#   75867
#   89350
#   105465
#   122252
#   140207
#   151780
#   168610
#   180715
#   197734
#   208540
#   220700
#
# Disc length: 3097 seconds
#
# Revision: 0
# Processed by: cddbd v1.5.1PL0 Copyright (c) Steve Scherf et al.
# Submitted via: uFREEDB ActiveX Control 1.5
#
DISCID=cb0c1710
DTITLE=Vários - Country Dreams
DYEAR=1900
DGENRE=Country
TTITLE0=A. Hammond/H. David - To All The Girls I've Loved 
TTITLE1=J. Webb - Wichita Linemam
TTITLE2=B. Seger - We've GoT Tonight
TTITLE3=R. Leigh - Don't Make My Brown Eyes Blue
TTITLE4=Thompson/James/Christopher - Always On My Mind
TTITLE5=J. Denver - Annie's Song
TTITLE6=K. Kristofferson - Mee And Bobby Mcgee
TTITLE7=B. R. M. Gibb - Islands In The Stream
TTITLE8=L. Ritchie Jr. - Lady
TTITLE9=W. Holyfield - Some Broken Hearts Never Mend
TTITLE10=D. Hupp/B. Morrison - You Decorated My Live
TTITLE11=B. Sherill - Stand By yor Man
TTITLE12=R. Orbison - Blue Bayon
TTITLE13=K. Kristofferson - Help Me Make ...
TTITLE14=W. Holyfield - You're...
TTITLE15=befor
EXTD=
EXTT0=
EXTT1=
EXTT2=
EXTT3=
EXTT4=
EXTT5=
EXTT6=
EXTT7=
EXTT8=
EXTT9=
EXTT10=
EXTT11=
EXTT12=
EXTT13=
EXTT14=
EXTT15=
PLAYORDER=
